<?xml version="1.0" standalone="no"?>
<!DOCTYPE svg PUBLIC "-//W3C//DTD SVG 20010904//EN"
 "http://www.w3.org/TR/2001/REC-SVG-20010904/DTD/svg10.dtd">
<svg version="1.0" xmlns="http://www.w3.org/2000/svg"
 width="1250.000000pt" height="1250.000000pt" viewBox="0 0 1250.000000 1250.000000"
 preserveAspectRatio="xMidYMid meet">
<metadata>
Created by potrace 1.11, written by Peter Selinger 2001-2013
</metadata>
<g transform="translate(0.000000,1250.000000) scale(0.100000,-0.100000)"
fill="#000000" stroke="none">
<path d="M2963 9188 l0 -2694 260 -264 c142 -146 385 -392 538 -548 l278 -283
1 258 c1 142 1 265 1 273 0 8 0 110 -1 225 0 116 0 215 1 220 1 6 0 14 -1 20
-1 5 -1 48 0 95 1 47 1 90 1 95 -2 96 -2 162 0 170 1 6 1 13 0 17 -2 15 -3
133 -1 143 1 6 2 14 1 18 -2 11 -2 389 0 402 1 6 0 14 -1 20 -1 5 -1 48 0 95
1 47 1 90 1 95 -2 96 -2 162 0 170 1 6 1 13 0 17 -2 15 -3 133 -1 143 1 6 2
14 1 18 -2 11 -2 389 0 402 1 6 0 14 -1 20 -1 5 -1 48 0 95 1 47 1 90 1 95 0
26 -2 656 -1 698 l0 49 455 -454 c1225 -1220 1748 -1738 1754 -1738 6 0 843
829 1772 1757 l436 435 1 -1899 c0 -1044 1 -1911 1 -1927 1 -27 5 -25 84 57
99 102 883 901 947 964 l45 45 1 2689 c0 1479 -3 2689 -6 2689 -6 0 -326 -324
-1128 -1138 -272 -277 -556 -563 -586 -591 l-21 -20 1 716 1 716 -334 -339
c-184 -186 -422 -428 -529 -536 l-195 -198 0 -703 0 -704 -168 -174 c-92 -96
-202 -210 -244 -254 l-77 -80 -118 121 c-64 67 -174 180 -244 253 l-126 131
-1 267 c-1 148 -1 276 -1 286 0 9 0 64 0 122 0 58 0 112 0 120 0 8 0 62 0 120
0 58 0 112 0 120 0 8 0 62 0 120 0 58 0 111 0 118 0 6 0 30 1 52 0 22 0 50 0
62 -1 14 -93 115 -273 298 -150 152 -389 394 -530 538 -218 221 -258 258 -259
237 -1 -14 0 -29 1 -35 1 -5 2 -17 2 -25 0 -8 -1 -117 -1 -242 0 -126 0 -236
0 -245 0 -10 0 -72 0 -138 1 -66 1 -127 1 -135 -1 -8 -1 -142 -1 -297 0 -156
-3 -283 -6 -283 -3 0 -56 51 -116 113 -61 61 -330 334 -598 605 -267 271 -606
615 -752 763 l-266 271 0 -2694z"/>
<path d="M4700 8068 c0 -212 0 -390 1 -445 0 -21 0 -462 0 -480 0 -10 0 -72 0
-138 1 -66 1 -127 1 -135 -1 -8 -1 -224 0 -480 0 -256 0 -471 -1 -477 0 -13 0
-179 0 -208 0 -22 0 -462 0 -482 0 -10 0 -72 0 -138 1 -66 1 -127 1 -135 -1
-8 -1 -224 0 -480 0 -256 0 -471 -1 -477 0 -13 0 -178 0 -208 3 -180 -1 -568
-6 -573 -1 -2 -148 142 -326 319 -228 229 -323 331 -325 349 -4 32 -7 142 -4
155 1 6 2 14 1 18 -2 11 -2 389 0 402 1 6 0 14 -1 20 -1 5 -1 48 0 95 1 47 1
92 1 100 0 8 -1 35 -1 60 l0 46 -539 538 -538 538 0 -1231 0 -1232 73 -72
c127 -126 1467 -1453 1704 -1687 125 -124 404 -400 620 -613 215 -214 394
-386 397 -383 3 3 5 45 4 93 -1 49 -2 97 -1 108 5 124 3 385 -2 385 -4 0 -5 7
-2 15 9 23 10 225 1 225 -5 0 -5 5 -1 11 8 14 8 194 0 208 -4 6 -4 11 1 11 9
0 8 142 -1 166 -3 7 -2 14 2 14 6 0 7 107 2 220 0 14 -1 127 -1 253 0 125 0
233 0 240 0 6 1 60 2 119 2 59 0 111 -4 114 -3 3 -3 12 0 20 8 21 9 224 1 224
-4 0 -5 7 -2 15 9 23 10 225 1 225 -5 0 -5 5 -1 11 8 14 7 245 -1 259 -3 6 -3
10 2 10 9 0 8 282 -1 306 -3 8 -2 14 2 14 4 0 6 134 4 297 -1 164 -2 304 -2
311 0 6 0 59 0 117 0 58 0 112 0 120 0 8 0 62 0 120 0 58 0 112 0 120 0 8 0
62 0 120 0 119 0 102 0 258 1 65 -2 122 -5 127 -3 6 -3 10 2 10 9 0 8 282 -1
306 -3 8 -2 14 2 14 4 0 6 129 5 287 -3 341 -3 322 -1 446 1 53 -1 100 -5 103
-3 3 -3 12 0 20 8 23 9 224 0 224 -5 0 -5 5 -2 11 9 13 9 214 1 228 -4 5 -3
12 2 15 4 2 6 28 5 57 l-3 53 -349 351 c-192 192 -429 430 -525 528 -97 97
-179 177 -181 177 -3 0 -6 -114 -5 -252z"/>
<path d="M7265 7794 c-286 -289 -521 -527 -523 -529 -8 -8 -2 -6630 6 -6628 4
1 130 122 279 270 149 147 567 561 930 920 362 358 856 846 1097 1085 242 238
449 443 460 456 l21 24 1 1229 0 1229 -24 -23 c-146 -137 -1052 -1054 -1053
-1066 0 -9 -1 -212 -1 -451 0 -239 -4 -441 -8 -449 -4 -7 -152 -158 -329 -335
-233 -233 -321 -316 -322 -301 0 11 -1 1162 -1 2558 -1 1395 -4 2537 -7 2536
-3 0 -240 -236 -526 -525z"/>
</g>
</svg>
